<svg version="1.2" xmlns="http://www.w3.org/2000/svg" viewBox="0 0 263 207" width="50" height="50">
	<title>6056194</title>
	<style>
		tspan { white-space:pre } 
		.s0 { fill: #9177ff } 
		.s1 { fill: #8263ff } 
		.s2 { fill: #9177ff } 
	</style>
	<g id="Objects">
		<g id="&lt;Group&gt;">
			<g id="&lt;Group&gt;">
				<path id="&lt;Path&gt;" class="s0" d="m252.9 31.9l-63.4 14.3 35.7 10.2-32.1 46-42.9-35.8-39.5 54.5-46.1-35.2-44.7 57c0 0-1 4.1 2.6 12.5 3.5 8.5 5.9 10 5.9 10l39.7-52.1 46.7 35.7 39-53.8 43.2 36 42.2-60.4 14.8 26.5z"/>
				<path id="&lt;Path&gt;" class="s1" d="m40.5 100.1c2.1-36.1 32.1-64.8 68.7-64.8 24.6 0 46.2 13 58.4 32.5l23.5 19.6 8.7-12.4c-12.3-38.3-48.3-66.1-90.6-66.1-52.5 0-95.2 42.7-95.2 95.2 0 8.8 1.2 17.3 3.5 25.4z"/>
				<path id="&lt;Path&gt;" class="s1" d="m174.5 125.8c-9.1 27.3-34.9 47.1-65.3 47.1-21.8 0-41.2-10.2-53.8-26l-16.4 21.4c17.4 19 42.4 30.9 70.2 30.9 38.4 0 71.5-22.8 86.6-55.7z"/>
				<path id="&lt;Path&gt;" class="s2" d="m14 104.1c0 8.8 1.3 17.3 3.5 25.4l23-29.4c2-35.4 30.8-63.6 66.4-64.8v-26.3c-51.4 1.2-92.9 43.4-92.9 95.1z"/>
				<path id="&lt;Path&gt;" class="s2" d="m55.4 146.9l-16.4 21.4c16.9 18.5 41.1 30.2 67.9 30.9v-26.4c-20.8-0.7-39.4-10.7-51.5-25.9z"/>
			</g>
		</g>
	</g>
</svg>